<svg width="24" height="24" viewBox="0 0 24 24" fill="none" xmlns="http://www.w3.org/2000/svg">
    <symbol id="css" height="1.4em" viewBox="0 0 384 512">
        <path  d="M0 32l34.9 395.8L192 480l157.1-52.2L384 32H0zm313.1 80l-4.8 47.3L193 208.6l-.3.1h111.5l-12.8 146.6-98.2 28.7-98.8-29.2-6.4-73.9h48.9l3.2 38.3 52.6 13.3 54.7-15.4 3.7-61.6-166.3-.5v-.1l-.2.1-3.6-46.3L193.1 162l6.5-2.7H76.7L70.9 112h242.2z"/>
    </symbol>

    <symbol  id="github" viewBox="0 0 166 166" >
        <path  d="M82.6807 6.89005C62.7923 6.68795 43.6373 14.3906 29.4256 28.3052C15.2138 42.2198 7.10816 61.2078 6.89001 81.0961C6.96665 96.8135 12.0227 112.102 21.332 124.766C30.6413 137.43 43.7248 146.818 58.7033 151.581C62.4928 152.27 63.8709 149.997 63.8709 147.999C63.8709 146 63.8709 141.591 63.8709 135.39C42.7873 139.868 38.3087 125.468 38.3087 125.468C36.9052 120.947 33.9213 117.083 29.9028 114.582C23.0128 110.034 30.454 110.103 30.454 110.103C32.8356 110.422 35.1142 111.275 37.1189 112.6C39.1236 113.924 40.8024 115.685 42.0293 117.751C44.1676 121.459 47.676 124.179 51.7995 125.326C55.9231 126.473 60.3321 125.955 64.0776 123.883C64.4628 120.11 66.1714 116.595 68.9006 113.962C52.0888 112.101 34.4503 105.762 34.4503 77.3065C34.2999 69.8837 37.0426 62.6935 42.0982 57.2564C39.7958 50.8836 40.0676 43.8643 42.8562 37.6886C42.8562 37.6886 49.2639 35.6905 63.5264 45.2677C75.9415 41.9594 89.0065 41.9594 101.422 45.2677C115.891 35.6905 122.092 37.6886 122.092 37.6886C124.88 43.8643 125.152 50.8836 122.85 57.2564C128.023 62.5938 130.914 69.7358 130.911 77.1687C130.911 105.694 113.135 111.964 96.4609 113.824C98.2866 115.596 99.6969 117.752 100.59 120.134C101.484 122.517 101.838 125.068 101.628 127.604V147.93C101.628 147.93 103.006 152.27 106.796 151.513C121.732 146.72 134.771 137.33 144.052 124.684C153.332 112.037 158.379 96.7819 158.471 81.0961C158.253 61.2078 150.148 42.2198 135.936 28.3052C121.724 14.3906 102.569 6.68795 82.6807 6.89005Z" />
    </symbol>

    <symbol id="link"  viewBox="0 0 24 24" >
        <path  xmlns="http://www.w3.org/2000/svg" id="Vector" d="M10.0002 5H8.2002C7.08009 5 6.51962 5 6.0918 5.21799C5.71547 5.40973 5.40973 5.71547 5.21799 6.0918C5 6.51962 5 7.08009 5 8.2002V15.8002C5 16.9203 5 17.4801 5.21799 17.9079C5.40973 18.2842 5.71547 18.5905 6.0918 18.7822C6.5192 19 7.07899 19 8.19691 19H15.8031C16.921 19 17.48 19 17.9074 18.7822C18.2837 18.5905 18.5905 18.2839 18.7822 17.9076C19 17.4802 19 16.921 19 15.8031V14M20 9V4M20 4H15M20 4L13 11"  stroke-width="2" stroke-linecap="round" stroke-linejoin="round"/>
    </symbol>

    <symbol id="html" viewBox="0 0 384 512" >
        <path  d="M0 32l34.9 395.8L191.5 480l157.6-52.2L384 32H0zm308.2 127.9H124.4l4.1 49.4h175.6l-13.6 148.4-97.9 27v.3h-1.1l-98.7-27.3-6-75.8h47.7L138 320l53.5 14.5 53.7-14.5 6-62.2H84.3L71.5 112.2h241.1l-4.4 47.7z"/>
    </symbol>

    <symbol id="git" viewBox="0 0 512 512">
        <path  d="M216.29 158.39H137C97 147.9 6.51 150.63 6.51 233.18c0 30.09 15 51.23 35 61-25.1 23-37 33.85-37 49.21 0 11 4.47 21.14 17.89 26.81C8.13 383.61 0 393.35 0 411.65c0 32.11 28.05 50.82 101.63 50.82 70.75 0 111.79-26.42 111.79-73.18 0-58.66-45.16-56.5-151.63-63l13.43-21.55c27.27 7.58 118.7 10 118.7-67.89 0-18.7-7.73-31.71-15-41.07l37.41-2.84zm-63.42 241.9c0 32.06-104.89 32.1-104.89 2.43 0-8.14 5.27-15 10.57-21.54 77.71 5.3 94.32 3.37 94.32 19.11zm-50.81-134.58c-52.8 0-50.46-71.16 1.2-71.16 49.54 0 50.82 71.16-1.2 71.16zm133.3 100.51v-32.1c26.75-3.66 27.24-2 27.24-11V203.61c0-8.5-2.05-7.38-27.24-16.26l4.47-32.92H324v168.71c0 6.51.4 7.32 6.51 8.14l20.73 2.84v32.1zm52.45-244.31c-23.17 0-36.59-13.43-36.59-36.61s13.42-35.77 36.59-35.77c23.58 0 37 12.62 37 35.77s-13.42 36.61-37 36.61zM512 350.46c-17.49 8.53-43.1 16.26-66.28 16.26-48.38 0-66.67-19.5-66.67-65.46V194.75c0-5.42 1.05-4.06-31.71-4.06V154.5c35.78-4.07 50-22 54.47-66.27h38.63c0 65.83-1.34 61.81 3.26 61.81H501v40.65h-60.56v97.15c0 6.92-4.92 51.41 60.57 26.84z"/>
    </symbol>

    <symbol id="js"  viewBox="0 0 448 512">
            <path  d="M400 32H48C21.5 32 0 53.5 0 80v352c0 26.5 21.5 48 48 48h352c26.5 0 48-21.5 48-48V80c0-26.5-21.5-48-48-48zM243.8 381.4c0 43.6-25.6 63.5-62.9 63.5-33.7 0-53.2-17.4-63.2-38.5l34.3-20.7c6.6 11.7 12.6 21.6 27.1 21.6 13.8 0 22.6-5.4 22.6-26.5V237.7h42.1v143.7zm99.6 63.5c-39.1 0-64.4-18.6-76.7-43l34.3-19.8c9 14.7 20.8 25.6 41.5 25.6 17.4 0 28.6-8.7 28.6-20.8 0-14.4-11.4-19.5-30.7-28l-10.5-4.5c-30.4-12.9-50.5-29.2-50.5-63.5 0-31.6 24.1-55.6 61.6-55.6 26.8 0 46 9.3 59.8 33.7L368 290c-7.2-12.9-15-18-27.1-18-12.3 0-20.1 7.8-20.1 18 0 12.6 7.8 17.7 25.9 25.6l10.5 4.5c35.8 15.3 55.9 31 55.9 66.2 0 37.8-29.8 58.6-69.7 58.6z"/>
    </symbol>

    <symbol id="react" viewBox="0 0 512 512">
            <path  d="M418.2 177.2c-5.4-1.8-10.8-3.5-16.2-5.1.9-3.7 1.7-7.4 2.5-11.1 12.3-59.6 4.2-107.5-23.1-123.3-26.3-15.1-69.2.6-112.6 38.4-4.3 3.7-8.5 7.6-12.5 11.5-2.7-2.6-5.5-5.2-8.3-7.7-45.5-40.4-91.1-57.4-118.4-41.5-26.2 15.2-34 60.3-23 116.7 1.1 5.6 2.3 11.1 3.7 16.7-6.4 1.8-12.7 3.8-18.6 5.9C38.3 196.2 0 225.4 0 255.6c0 31.2 40.8 62.5 96.3 81.5 4.5 1.5 9 3 13.6 4.3-1.5 6-2.8 11.9-4 18-10.5 55.5-2.3 99.5 23.9 114.6 27 15.6 72.4-.4 116.6-39.1 3.5-3.1 7-6.3 10.5-9.7 4.4 4.3 9 8.4 13.6 12.4 42.8 36.8 85.1 51.7 111.2 36.6 27-15.6 35.8-62.9 24.4-120.5-.9-4.4-1.9-8.9-3-13.5 3.2-.9 6.3-1.9 9.4-2.9 57.7-19.1 99.5-50 99.5-81.7 0-30.3-39.4-59.7-93.8-78.4zM282.9 92.3c37.2-32.4 71.9-45.1 87.7-36 16.9 9.7 23.4 48.9 12.8 100.4-.7 3.4-1.4 6.7-2.3 10-22.2-5-44.7-8.6-67.3-10.6-13-18.6-27.2-36.4-42.6-53.1 3.9-3.7 7.7-7.2 11.7-10.7zM167.2 307.5c5.1 8.7 10.3 17.4 15.8 25.9-15.6-1.7-31.1-4.2-46.4-7.5 4.4-14.4 9.9-29.3 16.3-44.5 4.6 8.8 9.3 17.5 14.3 26.1zm-30.3-120.3c14.4-3.2 29.7-5.8 45.6-7.8-5.3 8.3-10.5 16.8-15.4 25.4-4.9 8.5-9.7 17.2-14.2 26-6.3-14.9-11.6-29.5-16-43.6zm27.4 68.9c6.6-13.8 13.8-27.3 21.4-40.6s15.8-26.2 24.4-38.9c15-1.1 30.3-1.7 45.9-1.7s31 .6 45.9 1.7c8.5 12.6 16.6 25.5 24.3 38.7s14.9 26.7 21.7 40.4c-6.7 13.8-13.9 27.4-21.6 40.8-7.6 13.3-15.7 26.2-24.2 39-14.9 1.1-30.4 1.6-46.1 1.6s-30.9-.5-45.6-1.4c-8.7-12.7-16.9-25.7-24.6-39s-14.8-26.8-21.5-40.6zm180.6 51.2c5.1-8.8 9.9-17.7 14.6-26.7 6.4 14.5 12 29.2 16.9 44.3-15.5 3.5-31.2 6.2-47 8 5.4-8.4 10.5-17 15.5-25.6zm14.4-76.5c-4.7-8.8-9.5-17.6-14.5-26.2-4.9-8.5-10-16.9-15.3-25.2 16.1 2 31.5 4.7 45.9 8-4.6 14.8-10 29.2-16.1 43.4zM256.2 118.3c10.5 11.4 20.4 23.4 29.6 35.8-19.8-.9-39.7-.9-59.5 0 9.8-12.9 19.9-24.9 29.9-35.8zM140.2 57c16.8-9.8 54.1 4.2 93.4 39 2.5 2.2 5 4.6 7.6 7-15.5 16.7-29.8 34.5-42.9 53.1-22.6 2-45 5.5-67.2 10.4-1.3-5.1-2.4-10.3-3.5-15.5-9.4-48.4-3.2-84.9 12.6-94zm-24.5 263.6c-4.2-1.2-8.3-2.5-12.4-3.9-21.3-6.7-45.5-17.3-63-31.2-10.1-7-16.9-17.8-18.8-29.9 0-18.3 31.6-41.7 77.2-57.6 5.7-2 11.5-3.8 17.3-5.5 6.8 21.7 15 43 24.5 63.6-9.6 20.9-17.9 42.5-24.8 64.5zm116.6 98c-16.5 15.1-35.6 27.1-56.4 35.3-11.1 5.3-23.9 5.8-35.3 1.3-15.9-9.2-22.5-44.5-13.5-92 1.1-5.6 2.3-11.2 3.7-16.7 22.4 4.8 45 8.1 67.9 9.8 13.2 18.7 27.7 36.6 43.2 53.4-3.2 3.1-6.4 6.1-9.6 8.9zm24.5-24.3c-10.2-11-20.4-23.2-30.3-36.3 9.6.4 19.5.6 29.5.6 10.3 0 20.4-.2 30.4-.7-9.2 12.7-19.1 24.8-29.6 36.4zm130.7 30c-.9 12.2-6.9 23.6-16.5 31.3-15.9 9.2-49.8-2.8-86.4-34.2-4.2-3.6-8.4-7.5-12.7-11.5 15.3-16.9 29.4-34.8 42.2-53.6 22.9-1.9 45.7-5.4 68.2-10.5 1 4.1 1.9 8.2 2.7 12.2 4.9 21.6 5.7 44.1 2.5 66.3zm18.2-107.5c-2.8.9-5.6 1.8-8.5 2.6-7-21.8-15.6-43.1-25.5-63.8 9.6-20.4 17.7-41.4 24.5-62.9 5.2 1.5 10.2 3.1 15 4.7 46.6 16 79.3 39.8 79.3 58 0 19.6-34.9 44.9-84.8 61.4zm-149.7-15c25.3 0 45.8-20.5 45.8-45.8s-20.5-45.8-45.8-45.8c-25.3 0-45.8 20.5-45.8 45.8s20.5 45.8 45.8 45.8z"/>
    </symbol>

    <symbol id="redux" viewBox="0 0 255 255" preserveAspectRatio="xMidYMid">
        <path d="M177.381 169.733c9.447-.978 16.614-9.122 16.288-18.896-.325-9.773-8.47-17.592-18.243-17.592h-.651c-10.1.326-17.918 8.796-17.592 18.895.326 4.887 2.28 9.122 5.212 12.054-11.076 21.828-28.016 37.791-53.426 51.148-17.266 9.122-35.183 12.38-53.1 10.1-14.66-1.955-26.062-8.47-33.23-19.222-10.424-15.963-11.401-33.23-2.605-50.496 6.19-12.38 15.962-21.502 22.152-26.063-1.303-4.235-3.258-11.402-4.235-16.614-47.237 34.207-42.35 80.468-28.016 102.295 10.75 16.29 32.577 26.389 56.684 26.389 6.515 0 13.03-.652 19.546-2.28 41.699-8.145 73.299-32.905 91.216-69.718zm57.336-40.397c-24.759-28.995-61.245-44.958-102.944-44.958h-5.212c-2.932-5.864-9.122-9.774-15.963-9.774h-.652C99.848 74.93 92.03 83.4 92.355 93.5c.326 9.773 8.47 17.592 18.243 17.592h.651c7.167-.326 13.357-4.887 15.963-11.077h5.864c24.759 0 48.214 7.167 69.39 21.176 16.288 10.751 28.016 24.76 34.531 41.7 5.538 13.683 5.212 27.04-.652 38.443-9.121 17.266-24.432 26.714-44.63 26.714-13.031 0-25.41-3.91-31.926-6.842-3.583 3.258-10.099 8.47-14.66 11.729 14.009 6.515 28.343 10.099 42.025 10.099 31.274 0 54.404-17.267 63.2-34.533 9.447-18.896 8.795-51.474-15.637-79.165zM69.225 175.27c.326 9.774 8.47 17.592 18.243 17.592h.652c10.099-.325 17.917-8.796 17.591-18.895-.325-9.774-8.47-17.592-18.243-17.592h-.651c-.652 0-1.63 0-2.28.325-13.357-22.153-18.895-46.26-16.94-72.323 1.302-19.547 7.818-36.488 19.22-50.497 9.447-12.054 27.69-17.918 40.07-18.243 34.531-.652 49.19 42.351 50.168 59.618 4.235.977 11.402 3.258 16.289 4.887C189.434 27.366 156.857 0 125.584 0c-29.32 0-56.359 21.176-67.11 52.451-14.985 41.7-5.212 81.771 13.031 113.372-1.628 2.28-2.606 5.864-2.28 9.448z" />
    </symbol>

    <symbol id="postman"
            viewBox="0 -5 60 70">
        <path d="M57.327 12.44a32 32 0 1 0-5.761 44.88c13.98-10.804 16.56-30.895 5.76-44.88z" />
        <path d="M42.793 20.388L29.3 33.988l-3.813-3.92c13.28-13.28 14.613-12.08 17.307-9.68z" fill= '#004a77'/>
        <path
                d="M29.3 34.36a.48.48 0 0 1-.32-.133l-3.84-3.84a.48.48 0 0 1 0-.667c13.093-13.093 14.88-12.48 17.973-9.68a.427.427 0 0 1 .16.347c.02.13-.03.263-.133.347L29.647 34.228a.506.506 0 0 1-.347.133zm-3.147-4.293l3.147 3.147 12.8-12.8a2.88 2.88 0 0 0-3.787-.64c-2.32 1.04-6.053 4.213-12.16 10.293z"
                fill= '#c2e7ff'/>
        <path d="M33.167 37.748l-3.68-3.76L42.98 20.654c3.627 3.547-1.76 9.467-9.813 17.093z" fill= '#004a77'/>
        <path
                d="M33.167 38.228a.56.56 0 0 1-.32-.133l-3.76-3.68a.56.56 0 0 1 0-.427.517.517 0 0 1 0-.347L42.58 20.148a.506.506 0 0 1 .693 0 4.136 4.136 0 0 1 1.333 3.173c0 3.6-4.107 8.133-11.093 14.747a.56.56 0 0 1-.347.16zm-2.987-4.24L33.193 37c5.333-5.04 10.427-10.24 10.453-13.76a3.04 3.04 0 0 0-.693-2.053z"
                fill= '#c2e7ff'/>
        <path
                d="M25.593 30.148l2.667 2.667a.16.16 0 0 1 0 .24l-5.627 1.2a.533.533 0 0 1-.48-.907l3.28-3.253s.107 0 .16.053z"
                fill= '#004a77'/>
        <path
                d="M22.5 34.788a1.04 1.04 0 0 1-.88-.507 1.014 1.014 0 0 1 .187-1.2l3.253-3.28a.64.64 0 0 1 .853 0l2.667 2.667c.158.15.22.377.16.587s-.236.377-.453.427l-5.627 1.2zm2.987-4.053l-3.013 3.013 4.987-1.067zm.24-.24z"
                fill= '#c2e7ff'/>
        <path
                d="M49.967 12.894c-1.93-1.862-4.962-1.94-6.986-.183s-2.37 4.773-.794 6.943 4.547 2.778 6.847 1.4l-3.627-3.627z"
                fill= '#004a77'/>
        <path
                d="M46.367 22.28a5.65 5.65 0 0 1-5.156-3.508 5.667 5.667 0 0 1 1.2-6.118 5.71 5.71 0 0 1 8 0c.102.086.16.213.16.347a.46.46 0 0 1-.16.347l-4.32 4.08 3.28 3.227a.45.45 0 0 1 .133.4.48.48 0 0 1-.213.347 5.8 5.8 0 0 1-2.933.88zm0-10.347c-1.9.01-3.6 1.153-4.313 2.9s-.325 3.758 1.007 5.1a4.665 4.665 0 0 0 5.173.987l-3.147-3.147a.427.427 0 0 1 0-.667l4.16-4.187a4.785 4.785 0 0 0-2.88-.987z"
                fill= '#c2e7ff'/>
        <path d="M50.047 12.974l-4.56 4.533 3.627 3.627a5.52 5.52 0 0 0 1.013-.747 5.333 5.333 0 0 0-.08-7.413z"
              fill= '#004a77'/>
        <path
                d="M49.033 21.534a.4.4 0 0 1-.32-.133l-3.627-3.627a.427.427 0 0 1 0-.667l4.533-4.453a.48.48 0 0 1 .8 0 5.6 5.6 0 0 1 0 8 4.88 4.88 0 0 1-1.067.853.43.43 0 0 1-.32.027zM46.1 17.428l3.013 3.013a5.12 5.12 0 0 0 .587-.48 4.72 4.72 0 0 0 1.387-3.333 4.58 4.58 0 0 0-1.147-3.04z"
                fill= '#004a77'/>
        <path
                d="M43.353 20.948a1.948 1.948 0 0 0-2.667 0L28.607 33l2 2.027 12.773-11.2a1.977 1.977 0 0 0-.027-2.88z"
                fill= '#004a77'/>
        <path
                d="M30.5 35.508a.48.48 0 0 1-.32-.133l-2.027-2.027a.48.48 0 0 1 0-.667l12.08-12.027a2.454 2.454 0 0 1 4.187 1.813 2.51 2.51 0 0 1-.827 1.76l-12.773 11.2a.455.455 0 0 1-.32.08zM29.087 33l1.333 1.36 12.533-10.907c.31-.27.495-.656.507-1.067s-.15-.813-.453-1.093a1.493 1.493 0 0 0-2.107 0z"
                fill= '#c2e7ff'/>
        <path
                d="M19.247 46.734a.27.27 0 0 0 0 .32l.533 2.32a.688.688 0 0 1-.332.7.65.65 0 0 1-.762-.077l-3.653-3.52L26.42 35h3.947l2.667 2.667a60.54 60.54 0 0 1-13.787 9.067z"
                fill= '#004a77'/>
        <path
                d="M19.007 50.654c-.302-.006-.6-.13-.8-.347l-3.493-3.493a.427.427 0 0 1 0-.667L26.18 34.654a.45.45 0 0 1 .24-.133h3.973a.48.48 0 0 1 .32 0l2.667 2.667a.426.426 0 0 1 .133.373.43.43 0 0 1-.16.347l-.213.187a65.33 65.33 0 0 1-13.68 8.773l.507 2.16a1.15 1.15 0 0 1-1.093 1.413zm-3.253-4.187L18.9 49.64a.16.16 0 0 0 .213 0 .16.16 0 0 0 0-.187l-.533-2.32a.744.744 0 0 1 .4-.853 65.56 65.56 0 0 0 13.333-8.587l-2.187-2.187h-3.573zm3.84.48z"
                fill= '#c2e7ff'/>
        <path d="M12.287 49.214l2.667-2.667 4.107 4.107-6.533-.453a.534.534 0 0 1-.24-.986z" fill= '#004a77'/>
        <path
                d="M19.14 51.054l-6.507-.453c-.386-.036-.718-.3-.854-.653s-.053-.772.214-1.054l2.667-2.667a.48.48 0 0 1 .667 0l4.08 4.08a.452.452 0 0 1 0 .533.507.507 0 0 1-.267.213zm-6.507-1.493l5.333.347-2.933-2.747z"
                fill= '#c2e7ff'/>
        <path d="M30.74 35.322l-5.387.827 3.12-3.093z" fill= '#004a77'/>
        <path
                d="M25.353 36.654a.456.456 0 0 1-.427-.267.45.45 0 0 1 0-.533l3.093-3.12a.506.506 0 0 1 .693 0L30.98 35a.45.45 0 0 1 0 .48.47.47 0 0 1-.373.347l-5.333.827zm3.12-2.907L26.74 35.48l2.987-.453z"
                fill= '#c2e7ff'/>
        <path d="M30.74 35.32l-3.76.48a.48.48 0 0 1-.453-.8l1.947-1.947z" fill= '#004a77'/>
        <path
                d="M26.873 36.308a.987.987 0 0 1-.853-.507.96.96 0 0 1 .16-1.147l1.947-1.947a.506.506 0 0 1 .693 0l2.267 2.267a.48.48 0 0 1-.293.827l-3.733.48zm0-.987l2.827-.347-1.253-1.253-1.6 1.6zm23.2-19.28a.4.4 0 0 0-.507-.16.37.37 0 0 0-.186.22.377.377 0 0 0 .026.287c.187.393.135.858-.133 1.2a.338.338 0 0 0-.1.253.38.38 0 0 0 .1.253.29.29 0 0 0 .213 0 .35.35 0 0 0 .347-.107 1.84 1.84 0 0 0 .24-1.947z"
                fill= '#c2e7ff'/>
    </symbol>

    <symbol id="ts" viewBox="0 0 36 38" >
        <path d="M34.3131 0H1.68686C0.755232 0 0 0.797189 0 1.78057V36.2194C0 37.2028 0.755232 38 1.68686 38H34.3131C35.2448 38 36 37.2028 36 36.2194V1.78057C36 0.797189 35.2448 0 34.3131 0Z" />
        <path fill="#0e1720" fill-rule="evenodd" clip-rule="evenodd" d="M20.8865 29.5301V33.6938C21.6032 34.0672 22.367 34.33 23.1545 34.4741C24.0645 34.6515 24.9883 34.7387 25.9137 34.7347C26.8156 34.7392 27.7154 34.6432 28.5982 34.4483C29.3909 34.2793 30.1471 33.9572 30.8289 33.4983C31.4619 33.067 31.9837 32.4767 32.3474 31.7802C32.9987 30.338 33.0847 28.6827 32.5865 27.1741C32.3763 26.6099 32.0631 26.0948 31.6647 25.6581C31.237 25.1938 30.7512 24.7933 30.2208 24.4679C29.6101 24.0904 28.9757 23.7576 28.3218 23.4718C27.8075 23.2465 27.3447 23.0275 26.9332 22.8149C26.5678 22.6302 26.2181 22.4127 25.8879 22.1648C25.6294 21.9735 25.4048 21.7355 25.2245 21.4618C25.0688 21.2133 24.9877 20.921 24.9918 20.6231C24.9884 20.3489 25.0608 20.0796 25.2001 19.8482C25.3514 19.606 25.5533 19.4036 25.7902 19.2565C26.0799 19.0765 26.395 18.9468 26.7237 18.8724C27.1271 18.7778 27.5395 18.7323 27.9528 18.7367C28.3004 18.738 28.6475 18.7643 28.9917 18.8154C29.3633 18.8685 29.7311 18.9487 30.0922 19.0556C30.4596 19.1631 30.8188 19.2992 31.1671 19.4628C31.505 19.6218 31.8283 19.8135 32.1327 20.0355V16.15C31.4989 15.8969 30.8418 15.7149 30.1719 15.6071C29.3631 15.4829 28.5464 15.4244 27.7291 15.4321C26.8357 15.427 25.9448 15.534 25.0754 15.751C24.2895 15.9405 23.5422 16.2775 22.8691 16.7458C22.2438 17.1854 21.7275 17.7769 21.3635 18.4707C20.9778 19.2411 20.7869 20.1036 20.8094 20.9746C20.7809 22.1265 21.1403 23.2518 21.8238 24.1503C22.6623 25.1466 23.7197 25.9104 24.9031 26.3747C25.4431 26.6099 25.9467 26.8402 26.4138 27.0655C26.8353 27.2634 27.2404 27.4981 27.6249 27.7671C27.9351 27.9801 28.2075 28.2488 28.4298 28.5611C28.6253 28.8443 28.729 29.1865 28.7255 29.5368C28.7273 29.7994 28.6634 30.0578 28.5404 30.286C28.4036 30.5312 28.2115 30.7368 27.9811 30.8845C27.6928 31.07 27.3774 31.2039 27.0477 31.2808C26.6182 31.3821 26.1789 31.43 25.7388 31.4233C24.8752 31.4216 24.0185 31.2609 23.2072 30.9483C22.3597 30.6254 21.5738 30.1451 20.8865 29.5301ZM14.2599 19.1642H19.4028V15.7347H5.06323V19.1642H10.1829V34.4375H14.2599V19.1642Z" />
    </symbol>

    <symbol id="telegram" viewBox="0 0 39 33">
        <path d="M14.6718 30.746L15.2777 21.593L31.8959 6.61927C32.6316 5.94848 31.7444 5.62391 30.7707 6.20814L10.2576 19.1695L1.38587 16.3565C-0.5183 15.8156 -0.539939 14.4956 1.81864 13.5435L36.375 0.214327C37.9546 -0.499738 39.4693 0.603817 38.8635 3.02731L32.9778 30.746C32.5667 32.7151 31.3766 33.1911 29.7321 32.2823L20.7738 25.661L16.4678 29.8372C15.9701 30.3349 15.559 30.746 14.6718 30.746Z"/>
    </symbol>

    <symbol id="zoom" viewBox="0 0 27 27"  >
    <path d="M5.14502 8.96789V14.2657C5.14972 15.4637 6.12822 16.4279 7.32152 16.423H15.044C15.2635 16.423 15.4401 16.2464 15.4401 16.0316V10.7338C15.4354 9.53576 14.4569 8.57156 13.2638 8.57645H5.54135C5.32183 8.57645 5.14521 8.75308 5.14521 8.96789H5.14502ZM15.9316 11.0345L19.1199 8.70549C19.3968 8.47638 19.6114 8.53356 19.6114 8.94889V16.0508C19.6114 16.5233 19.3488 16.4661 19.1199 16.2942L15.9316 13.9698V11.0345Z" />
    </symbol>

    <symbol id="email" viewBox="0 0 41 31">
        <path d="M39.516 9.97536C39.8228 9.73149 40.2791 9.95963 40.2791 10.3451V26.4331C40.2791 28.5179 38.5877 30.2093 36.5029 30.2093H3.77616C1.69141 30.2093 0 28.5179 0 26.4331V10.353C0 9.95963 0.448419 9.73935 0.7631 9.98323C2.52531 11.3521 4.86181 13.0907 12.8862 18.9201C14.5461 20.1317 17.3467 22.6806 20.1395 22.6648C22.9481 22.6884 25.8038 20.0845 27.4008 18.9201C35.4251 13.0907 37.7538 11.3442 39.516 9.97536ZM20.1395 20.1395C21.9647 20.171 24.5923 17.8424 25.9139 16.8826C36.3534 9.30667 37.148 8.64584 39.5553 6.75776C40.0116 6.40374 40.2791 5.85305 40.2791 5.27089V3.77616C40.2791 1.69141 38.5877 0 36.5029 0H3.77616C1.69141 0 0 1.69141 0 3.77616V5.27089C0 5.85305 0.267478 6.39588 0.723765 6.75776C3.13107 8.63797 3.92564 9.30667 14.3652 16.8826C15.6868 17.8424 18.3144 20.171 20.1395 20.1395Z" />
    </symbol>

    <symbol id="download">
        <path d="M1.09011 9.49996C1.23233 9.49996 1.35677 9.54441 1.46344 9.63329C1.57011 9.72218 1.62344 9.83774 1.62344 9.97996V12.4866C1.62344 12.7711 1.72122 13.0111 1.91677 13.2066C2.11233 13.4022 2.35233 13.5 2.63677 13.5H14.6368C14.8857 13.5 15.1079 13.4022 15.3034 13.2066C15.499 13.0111 15.5968 12.7711 15.5968 12.4866V9.97996C15.5968 9.83774 15.6501 9.72218 15.7568 9.63329C15.8634 9.54441 15.9879 9.49996 16.1301 9.49996C16.2723 9.49996 16.3879 9.54441 16.4768 9.63329C16.5657 9.72218 16.6101 9.83774 16.6101 9.97996V12.4866C16.6101 13.02 16.4146 13.4822 16.0234 13.8733C15.6323 14.2644 15.1523 14.46 14.5834 14.46H2.63677C2.06789 14.46 1.58789 14.2644 1.19677 13.8733C0.805663 13.4822 0.610107 13.02 0.610107 12.4866V9.97996C0.610107 9.83774 0.654552 9.72218 0.743441 9.63329C0.83233 9.54441 0.947885 9.49996 1.09011 9.49996ZM8.23677 11.42C8.34344 11.5266 8.46789 11.58 8.61011 11.58C8.75233 11.58 8.87677 11.5266 8.98344 11.42L11.9701 8.43329C12.0768 8.32663 12.1301 8.20218 12.1301 8.05996C12.1301 7.91774 12.0768 7.80218 11.9701 7.71329C11.8634 7.62441 11.739 7.57996 11.5968 7.57996C11.4546 7.57996 11.3479 7.63329 11.2768 7.73996L9.09011 9.87329V1.07329C9.09011 0.931071 9.04566 0.815516 8.95677 0.726627C8.86789 0.637738 8.75233 0.593294 8.61011 0.593294C8.46789 0.593294 8.35233 0.637738 8.26344 0.726627C8.17455 0.815516 8.13011 0.931071 8.13011 1.07329V9.87329L5.94344 7.73996C5.87233 7.63329 5.76566 7.57996 5.62344 7.57996C5.48122 7.57996 5.35677 7.62441 5.25011 7.71329C5.14344 7.80218 5.09011 7.91774 5.09011 8.05996C5.09011 8.20218 5.14344 8.32663 5.25011 8.43329L8.23677 11.42Z" />
    </symbol>

    <symbol id="skype" viewBox="0 0 41 41">
        <path d="M20.1311 31.5654C13.4029 31.5654 10.3975 28.2557 10.3975 25.7721C10.3975 24.4927 11.3358 23.6047 12.6269 23.6047C15.5085 23.6047 14.7559 27.7473 20.1311 27.7473C22.8755 27.7473 24.3958 26.2504 24.3958 24.7185C24.3958 23.797 23.9459 22.7785 22.1313 22.3286L16.1507 20.8318C11.3341 19.6209 10.4594 17.0086 10.4594 14.5585C10.4594 9.4626 15.2442 7.54934 19.7397 7.54934C23.8723 7.54934 28.7591 9.84559 28.7591 12.8994C28.7591 14.2106 27.6085 14.9733 26.3291 14.9733C23.8723 14.9733 24.3255 11.5665 19.3651 11.5665C16.9083 11.5665 15.5319 12.677 15.5319 14.2708C15.5319 15.8647 17.4602 16.3748 19.1393 16.7577L23.5495 17.7395C28.3845 18.8249 29.6104 21.663 29.6104 24.3355C29.6104 28.4764 26.4294 31.5671 20.0408 31.5671M38.578 23.4023L38.5295 23.6281L38.4559 23.2267C38.481 23.3019 38.5295 23.3505 38.5545 23.4274C38.7552 22.2985 38.8573 21.1479 38.8573 19.9956C38.8577 17.505 38.3668 15.0389 37.4125 12.7384C36.4583 10.4379 35.0596 8.34836 33.2964 6.58937C31.5683 4.86724 29.5277 3.49024 27.284 2.53206C25.0798 1.47675 22.5996 0.976698 20.0458 0.976698C18.8416 0.976698 17.6308 1.09377 16.4618 1.31787L16.6608 1.41822L16.2611 1.36303L16.4601 1.32122C14.8433 0.455183 13.0378 0.0013702 11.2036 0C8.21167 0 5.40032 1.16736 3.28302 3.28967C2.23857 4.33125 1.41073 5.56935 0.847256 6.93253C0.283784 8.29572 -0.00415791 9.75699 4.53625e-05 11.232C4.53625e-05 13.1436 0.488395 15.0201 1.41158 16.6808L1.44502 16.4734L1.51359 16.8731L1.41158 16.6808C0.782185 20.2733 1.19709 23.9709 2.60402 27.3358C3.53898 29.5994 4.91931 31.652 6.663 33.3716C8.3847 35.1083 10.4264 36.4952 12.6754 37.4557C15.0067 38.4592 17.487 38.9576 20.0408 38.9576C21.1429 38.9576 22.2718 38.8572 23.3471 38.6582L23.1481 38.5545L23.5495 38.6314L23.3237 38.6816C25.0022 39.6379 26.901 40.14 28.8327 40.1383C30.3038 40.1426 31.7611 39.8547 33.1199 39.2911C34.4788 38.7275 35.7121 37.8996 36.7483 36.8553C37.7922 35.8134 38.6196 34.5752 39.1828 33.2121C39.746 31.849 40.0338 30.3878 40.0296 28.9129C40.0228 27.001 39.532 25.1219 38.603 23.4508" />
    </symbol>

    <symbol id="node" viewBox="0 0 32 32">
        <path d="M15.998 28.895c-0.337 0-0.673-0.088-0.969-0.259l-3.086-1.826c-0.46-0.257-0.235-0.349-0.083-0.402 0.614-0.213 0.739-0.262 1.394-0.635 0.069-0.038 0.159-0.024 0.231 0.018l2.37 1.407c0.087 0.048 0.207 0.048 0.287 0l9.241-5.333c0.086-0.049 0.141-0.149 0.141-0.25v-10.665c0-0.104-0.055-0.202-0.143-0.255l-9.237-5.329c-0.086-0.050-0.199-0.050-0.285 0l-9.235 5.331c-0.090 0.051-0.146 0.152-0.146 0.253v10.666c0 0.102 0.056 0.198 0.145 0.247l2.532 1.462c1.374 0.687 2.215-0.122 2.215-0.935v-10.53c0-0.149 0.12-0.266 0.269-0.266h1.172c0.146 0 0.267 0.117 0.267 0.266v10.53c0 1.833-0.998 2.885-2.736 2.885-0.534 0-0.955 0-2.129-0.579l-2.423-1.395c-0.598-0.346-0.969-0.993-0.969-1.686v-10.665c0-0.693 0.371-1.339 0.969-1.684l9.242-5.34c0.585-0.331 1.362-0.331 1.942 0l9.241 5.34c0.599 0.346 0.971 0.992 0.971 1.684v10.665c0 0.693-0.372 1.337-0.971 1.686l-9.241 5.335c-0.296 0.171-0.631 0.259-0.973 0.259zM18.853 21.547c-4.045 0-4.892-1.857-4.892-3.414 0-0.148 0.118-0.266 0.266-0.266h1.195c0.133 0 0.245 0.096 0.265 0.226 0.18 1.216 0.717 1.831 3.164 1.831 1.946 0 2.775-0.441 2.775-1.473 0-0.596-0.234-1.037-3.26-1.334-2.528-0.25-4.093-0.809-4.093-2.831 0-1.865 1.572-2.977 4.207-2.977 2.961 0 4.425 1.027 4.611 3.233 0.007 0.075-0.020 0.148-0.071 0.205-0.051 0.054-0.121 0.086-0.196 0.086h-1.2c-0.124 0-0.233-0.088-0.259-0.209-0.288-1.28-0.988-1.689-2.886-1.689-2.126 0-2.373 0.74-2.373 1.295 0 0.673 0.292 0.869 3.161 1.248 2.84 0.375 4.19 0.907 4.19 2.902 0 2.014-1.678 3.167-4.606 3.167z">
        </path>
    </symbol>

    <symbol id="any" viewBox="0 0 32 32">
        <path d="M18.143 26.641c0.516-0.902 1.248-1.502 2.307-1.701 0.208 0 0.417 0 0.625 0 0.367 0.117 0.737 0.228 1.056 0.455 0.318 0.406 0.837 0.919 1.321 1.104 0.911 0.349 1.611-0.346 2.193-0.947 0.422-0.436 0.748-1.134 0.519-1.739-0.205-0.542-0.802-0.825-1.123-1.289-0.682-0.986-0.503-2.274 0.136-3.217 0.303-0.447 0.707-0.823 1.248-0.94 0.505-0.109 1.016 0.036 1.522-0.023 0.469-0.055 1.068-0.434 1.213-0.919 0.278-0.93 0.406-2.531-0.647-3.036-1.119-0.537-2.336 0.087-3.235-1.023-0.417-0.515-0.715-1.195-0.741-1.861-0.035-0.871 0.492-1.362 1.066-1.944 0.405-0.411 0.696-1.077 0.542-1.668-0.136-0.518-0.515-0.937-0.916-1.273-0.736-0.618-1.717-0.792-2.474-0.119-0.218 0.194-0.415 0.409-0.622 0.614-0.172 0.17-0.363 0.311-0.593 0.393-1.143 0.409-2.089 0.002-2.96-0.715-0.082-0.099-0.152-0.206-0.226-0.311-0.224-0.394-0.33-0.815-0.317-1.271 0.008-0.308 0.025-0.618-0.022-0.925-0.224-1.471-2.472-1.766-3.521-1.054-0.651 0.442-0.666 1.285-0.732 1.991-0.072 0.77-0.249 1.46-0.914 1.927-0.567 0.398-1.358 0.636-2.051 0.532-0.383-0.057-0.722-0.232-1.032-0.457-0.646-0.468-1.022-1.19-1.941-1.111-0.815 0.070-1.564 0.761-1.934 1.46-0.527 0.997-0.032 1.591 0.638 2.319 0.69 0.75 0.902 1.53 0.595 2.515-0.305 0.979-0.864 1.697-1.925 1.828-0.591 0.073-1.26-0.033-1.81 0.24-0.732 0.363-0.738 1.253-0.74 1.962-0.002 0.811 0.133 1.615 1.023 1.838 0.93 0.233 2.005 0.064 2.776 0.773 0.935 0.859 1.193 2.199 0.52 3.27-0.238 0.379-0.558 0.696-0.813 1.062-0.311 0.446-0.342 0.785-0.391 1.311 0.212 0.246 0.262 0.585 0.456 0.837 0.499 0.649 1.205 1.116 2.049 1.092 0.818-0.023 1.242-0.953 1.874-1.376 0.41-0.186 0.837-0.286 1.29-0.241 0.448 0.045 0.845 0.258 1.268 0.387 0.187 0.126 0.374 0.253 0.56 0.379 0.103 0.131 0.206 0.262 0.309 0.393 0.093 0.119 0.147 0.23 0.203 0.37 0.042 0.107 0.086 0.213 0.109 0.326 0.040 0.203 0.065 0.419 0.069 0.625 0.003 0.168-0.003 0.336-0.001 0.504 0.011 1.107 0.653 1.651 1.725 1.709 1.020 0.055 2.164-0.087 2.363-1.307 0.065-0.398-0.031-0.841-0.012-1.248zM7.016 9.576c-0.001-0.003-0.002-0.005-0.002-0.008 0.003 0.001 0.007 0.002 0.010 0.003-0.003 0.001-0.005 0.003-0.008 0.005zM15.955 22.151c-3.21 0-5.813-2.602-5.813-5.813s2.602-5.813 5.813-5.813c3.21 0 5.813 2.602 5.813 5.813s-2.602 5.813-5.813 5.813zM23.45 25.817c-0-0-0.001-0-0.001-0s0.001 0 0.001 0c-0 0-0 0-0 0zM23.889 26.069c-0.001-0.001-0.002-0.002-0.003-0.003 0.002-0.001 0.005-0.001 0.007-0.002-0.001 0.002-0.003 0.003-0.004 0.005z">
        </path>
    </symbol>

    <symbol id="radix" viewBox="0 0 24 24">
        <path stroke="none" d="M0 0h24v24H0z" fill="none"/>
        <path d="M16.5 5.5m-2.5 0a2.5 2.5 0 1 0 5 0a2.5 2.5 0 1 0 -5 0"/>
        <path d="M6 3h5v5h-5z"/>
        <path d="M11 11v10a5 5 0 0 1 -.217 -9.995l.217 -.005z"/>
    </symbol>

    <symbol id="styled-components" viewBox="0 0 24 24">
        <path d="M16.214 6.762l-.075.391c-.116.741-.074.953.244 1.228l.307.254-.318 1.418c-.19.846-.423 1.555-.571 1.788-.127.201-.275.497-.307.656-.053.19-.233.381-.508.55-.243.138-.72.508-1.058.805-.27.243-.456.392-.557.456l-.33.261c-.106.17-.166.307-.189.411-.023.107-.01.178.024.23.033.05.09.085.168.107a.954.954 0 00.282.023 3 3 0 00.632-.112c.07-.019.125-.037.173-.053.074-.091.245-.263.548-.562.804-.793 1.111-1.227.794-1.11-.117.042-.064-.064.137-.276.424-.413.667-1.037 1.175-2.994.402-1.545.402-1.567.698-1.567.139 0 .532.024.532.024V6.762h-.902zm3.839 3.165c-.064 0-.17.096-.233.202-.116.19.021.306 1.767 1.396 1.037.657 1.873 1.217 1.852 1.26-.021.031-.868.582-1.883 1.217-1.842 1.142-1.852 1.153-1.683 1.386.212.275 0 .37 2.391-1.122L24 13.155v-.836l-1.937-1.196c-1.047-.656-1.957-1.185-2.01-1.196zm-16.085.117c-.053 0-.963.54-2.01 1.185L0 12.425v.836l1.947 1.217c1.08.666 1.99 1.217 2.032 1.217.042 0 .127-.096.212-.212.127-.201.02-.286-1.768-1.418C.72 12.996.54 12.848.71 12.732c.106-.074.91-.572 1.778-1.111 1.979-1.217 1.873-1.133 1.714-1.387-.063-.105-.17-.2-.233-.19zm8.684.023c-.292-.002-.92.443-2.8 1.978-.081.193-.088.326-.051.412.024.059.068.1.129.13.06.03.138.048.224.055.171.015.373-.012.536-.044l.11-.025a.386.386 0 01.144-.118c.116-.064.603-.508 1.09-.984.857-.868 1.058-1.26.709-1.387a.24.24 0 00-.09-.017zm2.196.603c-.257.007-.72.305-1.513.938-.398.323-.65.497-.785.533l-.524.414c-.197.36-.226.583-.174.706a.25.25 0 00.138.134.644.644 0 00.24.045 2.18 2.18 0 00.58-.085 3.466 3.466 0 00.291-.092l.029-.012.053-.028c.1-.129.33-.372.618-.652.91-.878 1.375-1.502 1.28-1.735-.043-.113-.117-.17-.233-.166zm-2.424 1.08c-.074.008-.24.136-.539.398-.432.382-.903.602-1.066.504a3.97 3.97 0 01-.114.024c-.166.033-.373.06-.558.045a.708.708 0 01-.252-.063.337.337 0 01-.168-.17c-.037-.09-.037-.202.005-.345l-.65.534-1.471 1.217V15.867l4.82-3.797a.41.41 0 01.016-.123c.037-.134.035-.202-.023-.196zm2.074.639c-.073 0-.195.103-.39.31-.265.283-.682.557-.903.613l-.034.018a2.191 2.191 0 01-.11.042c-.06.02-.138.044-.228.068-.18.049-.404.094-.604.089a.732.732 0 01-.275-.054.344.344 0 01-.184-.18c-.058-.139-.035-.334.092-.611L7.61 16.033v1.205h1.868l3.962-3.112c.103-.114.258-.27.467-.465.56-.519.687-.698.687-.963 0-.206-.023-.31-.096-.31zm.943 1.95l-.339.338c-.19.18-.529.402-.761.497l-.046.02-.003.005-.01.01c-.009.007-.013.008-.02.011a3.432 3.432 0 01-.282.093 3.058 3.058 0 01-.65.115 1.035 1.035 0 01-.31-.027.364.364 0 01-.218-.144c-.048-.074-.062-.173-.035-.295a1.11 1.11 0 01.095-.25l-3.197 2.526h4.252l.508-.582c.698-.814 1.016-1.396 1.016-1.894z"/>
    </symbol>

    <symbol id="tailwind" viewBox="0 0 24 24">
        <path d="M12.001,4.8c-3.2,0-5.2,1.6-6,4.8c1.2-1.6,2.6-2.2,4.2-1.8c0.913,0.228,1.565,0.89,2.288,1.624 C13.666,10.618,15.027,12,18.001,12c3.2,0,5.2-1.6,6-4.8c-1.2,1.6-2.6,2.2-4.2,1.8c-0.913-0.228-1.565-0.89-2.288-1.624 C16.337,6.182,14.976,4.8,12.001,4.8z M6.001,12c-3.2,0-5.2,1.6-6,4.8c1.2-1.6,2.6-2.2,4.2-1.8c0.913,0.228,1.565,0.89,2.288,1.624 c1.177,1.194,2.538,2.576,5.512,2.576c3.2,0,5.2-1.6,6-4.8c-1.2,1.6-2.6,2.2-4.2,1.8c-0.913-0.228-1.565-0.89-2.288-1.624 C10.337,13.382,8.976,12,6.001,12z"/>
    </symbol>

    <symbol id="tailwind" viewBox="0 0 24 24">
        <path d="M12.001,4.8c-3.2,0-5.2,1.6-6,4.8c1.2-1.6,2.6-2.2,4.2-1.8c0.913,0.228,1.565,0.89,2.288,1.624 C13.666,10.618,15.027,12,18.001,12c3.2,0,5.2-1.6,6-4.8c-1.2,1.6-2.6,2.2-4.2,1.8c-0.913-0.228-1.565-0.89-2.288-1.624 C16.337,6.182,14.976,4.8,12.001,4.8z M6.001,12c-3.2,0-5.2,1.6-6,4.8c1.2-1.6,2.6-2.2,4.2-1.8c0.913,0.228,1.565,0.89,2.288,1.624 c1.177,1.194,2.538,2.576,5.512,2.576c3.2,0,5.2-1.6,6-4.8c-1.2,1.6-2.6,2.2-4.2,1.8c-0.913-0.228-1.565-0.89-2.288-1.624 C10.337,13.382,8.976,12,6.001,12z"/>
    </symbol>

    <symbol id="express" viewBox="0 0 24 24">
        <path d="M24 18.588a1.529 1.529 0 01-1.895-.72l-3.45-4.771-.5-.667-4.003 5.444a1.466 1.466 0 01-1.802.708l5.158-6.92-4.798-6.251a1.595 1.595 0 011.9.666l3.576 4.83 3.596-4.81a1.435 1.435 0 011.788-.668L21.708 7.9l-2.522 3.283a.666.666 0 000 .994l4.804 6.412zM.002 11.576l.42-2.075c1.154-4.103 5.858-5.81 9.094-3.27 1.895 1.489 2.368 3.597 2.275 5.973H1.116C.943 16.447 4.005 19.009 7.92 17.7a4.078 4.078 0 002.582-2.876c.207-.666.548-.78 1.174-.588a5.417 5.417 0 01-2.589 3.957 6.272 6.272 0 01-7.306-.933 6.575 6.575 0 01-1.64-3.858c0-.235-.08-.455-.134-.666A88.33 88.33 0 010 11.577zm1.127-.286h9.654c-.06-3.076-2.001-5.258-4.59-5.278-2.882-.04-4.944 2.094-5.071 5.264z"/>
    </symbol>

    <symbol id="bem" viewBox="0 0 24 24">
        <path d="M0 5.163h5.61v1.65H0Zm0-3.065h5.61v1.65H0Zm10.067 6.106H0v1.65h9.69c1.06 0 3.536.024 4.455 1.51v-.92c-.448-1.462-1.768-2.24-4.078-2.24Zm.023 3.065H0v1.65h9.69c2.357 0 3.842.095 4.455.425v-.731c-.471-1.155-2.451-1.344-4.055-1.344Zm-.023 7.78H0V17.4h9.69c1.06 0 3.536-.024 4.455-1.509v.92c-.448 1.461-1.768 2.24-4.078 2.24zm.023-3.065H0v-1.65h9.69c2.357 0 3.842-.094 4.455-.424v.73c-.471 1.156-2.451 1.344-4.055 1.344zm6.507 5.918H24v-1.014h-7.19c-.637 0-2.146-.023-2.688-.896v.566c.26.872 1.06 1.344 2.475 1.344zm-.023-1.863h7.403v-1.013H16.81c-1.439 0-2.334-.047-2.688-.26v.448c.283.708 1.485.825 2.452.825z"/>
    </symbol>

    <symbol id="swiper" viewBox="0 0 24 24">
        <path d="M12 0C5.373 0 0 5.373 0 12s5.373 12 12 12 12-5.373 12-12S18.627 0 12 0zm4.884 17.908a4.328 4.328 0 0 1-1.092 1.488 4.817 4.817 0 0 1-1.644.936c-.632.216-1.308.324-2.028.324s-1.368-.1-1.944-.3c-.576-.2-1.088-.464-1.536-.792s-.832-.704-1.152-1.128a6.563 6.563 0 0 1-.768-1.284l1.68-1.008c.144.336.332.66.564.972.232.312.5.588.804.828a3.697 3.697 0 0 0 2.328.792c.4 0 .788-.056 1.164-.168.376-.112.708-.28.996-.504.288-.224.52-.5.696-.828.176-.328.264-.716.264-1.164 0-.432-.084-.804-.252-1.116a2.955 2.955 0 0 0-.684-.84 5 5 0 0 0-1.032-.672c-.4-.2-.832-.412-1.296-.636a44.725 44.725 0 0 1-1.644-.816 7.592 7.592 0 0 1-1.488-1.008 4.752 4.752 0 0 1-1.068-1.332c-.272-.504-.408-1.092-.408-1.764 0-.56.104-1.116.312-1.668a4.474 4.474 0 0 1 .912-1.476c.4-.432.9-.784 1.5-1.056s1.3-.408 2.1-.408c.592 0 1.14.076 1.644.228a5.98 5.98 0 0 1 2.412 1.38c.304.288.552.568.744.84l-1.512 1.224a4.172 4.172 0 0 0-1.284-1.188 4.204 4.204 0 0 0-.924-.408 3.634 3.634 0 0 0-1.08-.156c-.464 0-.868.072-1.212.216a2.692 2.692 0 0 0-.876.576c-.24.24-.42.516-.54.828-.12.312-.18.628-.18.948 0 .4.088.748.264 1.044.176.296.424.572.744.828s.712.504 1.176.744c.464.24.984.488 1.56.744.64.288 1.22.588 1.74.9.52.312.96.652 1.32 1.02.36.368.636.784.828 1.248.192.464.288 1.008.288 1.632 0 .736-.132 1.396-.396 1.98z"/>
    </symbol>

    <symbol id="mongoDB" viewBox="0 0 24 24">
        <path d="M17.193 9.555c-1.264-5.58-4.252-7.414-4.573-8.115-.28-.394-.53-.954-.735-1.44-.036.495-.055.685-.523 1.184-.723.566-4.438 3.682-4.74 10.02-.282 5.912 4.27 9.435 4.888 9.884l.07.05A73.49 73.49 0 0111.91 24h.481c.114-1.032.284-2.056.51-3.07.417-.296.604-.463.85-.693a11.342 11.342 0 003.639-8.464c.01-.814-.103-1.662-.197-2.218zm-5.336 8.195s0-8.291.275-8.29c.213 0 .49 10.695.49 10.695-.381-.045-.765-1.76-.765-2.405z"/>
    </symbol>

    <symbol id="css-modules" viewBox="0 0 24 24">
        <path d="M19.705 2.147v19.706H0V2.147h19.705ZM.141 21.712h19.423V2.288H.141v19.424Zm2.561-10.444c.428 0 .76.113.996.338.236.225.367.482.393.768h-.446a.926.926 0 0 0-.303-.517c-.15-.128-.362-.191-.635-.191-.333 0-.602.117-.808.352-.204.233-.306.59-.306 1.074 0 .396.092.717.276.964.186.245.462.368.828.368.338 0 .595-.13.771-.389.094-.136.163-.316.21-.538h.446c-.04.356-.172.654-.396.895-.268.29-.63.434-1.086.434-.392 0-.722-.118-.989-.356-.35-.315-.527-.8-.527-1.456 0-.499.132-.907.396-1.226.285-.347.679-.52 1.18-.52Zm2.28 2.38c.01.192.056.348.135.467.152.224.42.336.803.336.172 0 .328-.024.47-.073.272-.095.409-.266.409-.511 0-.184-.058-.315-.173-.393-.116-.077-.299-.144-.547-.2l-.458-.104c-.299-.067-.51-.142-.635-.223-.214-.141-.322-.352-.322-.633 0-.303.105-.553.315-.747.21-.195.508-.292.893-.292.354 0 .655.085.902.257.248.17.372.443.372.82h-.43a.847.847 0 0 0-.147-.417c-.14-.177-.377-.265-.71-.265-.27 0-.465.057-.583.17a.533.533 0 0 0-.177.396c0 .166.07.287.207.364.09.049.295.11.614.184l.474.108c.229.052.405.123.53.214.214.158.321.387.321.687 0 .375-.136.642-.41.803a1.822 1.822 0 0 1-.947.242c-.42 0-.75-.108-.987-.322-.237-.213-.354-.502-.35-.867h.43Zm3.137 0c.011.192.056.348.136.467.152.224.42.336.803.336.171 0 .328-.024.469-.073.273-.095.41-.266.41-.511 0-.184-.058-.315-.173-.393-.117-.077-.3-.144-.548-.2l-.457-.104c-.3-.067-.511-.142-.635-.223-.215-.141-.322-.352-.322-.633 0-.303.105-.553.315-.747.21-.195.508-.292.892-.292.355 0 .655.085.902.257.249.17.373.443.373.82h-.43a.847.847 0 0 0-.148-.417c-.14-.177-.376-.265-.71-.265-.27 0-.464.057-.582.17a.533.533 0 0 0-.177.396c0 .166.069.287.207.364.09.049.295.11.614.184l.474.108c.228.052.404.123.529.214.214.158.322.387.322.687 0 .375-.137.642-.41.803a1.822 1.822 0 0 1-.947.242c-.42 0-.75-.108-.987-.322-.238-.213-.355-.502-.35-.867h.43Zm-6.197 3.6.97 2.857.965-2.857h.648v3.38h-.434v-1.995c0-.07.001-.183.004-.343.003-.16.005-.33.005-.513l-.964 2.85h-.453l-.97-2.85v.104c0 .083 0 .21.004.38.004.168.007.292.007.372v1.994h-.437v-3.379h.655Zm4.743-.091c.597 0 1.038.191 1.325.575.224.299.336.681.336 1.147 0 .505-.128.924-.384 1.259-.3.392-.73.589-1.286.589-.52 0-.929-.172-1.226-.516-.265-.33-.398-.75-.398-1.256 0-.457.113-.848.34-1.173.292-.417.723-.625 1.293-.625Zm.046 3.16c.403 0 .695-.144.874-.432.181-.29.272-.623.272-.999 0-.397-.105-.717-.313-.959-.207-.242-.49-.363-.851-.363-.35 0-.635.12-.856.36-.22.24-.331.594-.331 1.061 0 .375.094.69.283.948.19.256.497.384.922.384Zm3.455-.08c.155 0 .283-.017.382-.049a.84.84 0 0 0 .437-.345c.09-.136.156-.311.196-.524a2 2 0 0 0 .034-.355c0-.418-.083-.743-.25-.975-.166-.231-.434-.347-.803-.347H9.35v2.595h.816ZM8.89 17.247h1.368c.465 0 .825.165 1.081.495.229.297.343.679.343 1.143 0 .36-.067.683-.202.973-.238.512-.647.769-1.226.769H8.89v-3.38Zm3.88 0v2.089c0 .245.046.45.138.612.136.245.367.368.69.368.388 0 .652-.133.791-.398.076-.144.113-.338.113-.582v-2.089h.465v1.898c0 .415-.056.735-.168.96-.206.407-.594.61-1.164.61s-.958-.203-1.162-.61c-.112-.225-.168-.545-.168-.96v-1.898h.465Zm2.899 0Zm.458 0v2.977h1.711v.402h-2.17v-3.379h.459Zm2.208 0h2.463v.414h-2.017v1.026h1.865v.391h-1.865v1.146h2.052v.402h-2.498v-3.379Zm3.402 2.29c.01.19.056.347.135.466.152.224.42.336.803.336.172 0 .328-.025.47-.074.272-.095.409-.265.409-.51 0-.184-.058-.315-.173-.394-.116-.076-.299-.143-.547-.2l-.458-.103c-.299-.068-.51-.142-.635-.223-.215-.141-.322-.352-.322-.633 0-.304.105-.553.315-.748.21-.194.508-.292.893-.292.354 0 .655.086.901.258.249.17.373.443.373.819h-.43a.847.847 0 0 0-.147-.416c-.14-.177-.377-.265-.711-.265-.27 0-.464.057-.582.17a.533.533 0 0 0-.177.396c0 .165.069.287.207.363.09.05.295.11.614.184l.474.108c.228.053.405.124.529.214.215.158.322.388.322.688 0 .374-.136.642-.41.803a1.822 1.822 0 0 1-.947.241c-.42 0-.75-.107-.987-.322-.238-.213-.354-.502-.35-.867h.43Z"/>
    </symbol>

    <symbol id="swagger" viewBox="0 0 24 24">
        <path d="M12 0C5.383 0 0 5.383 0 12s5.383 12 12 12c6.616 0 12-5.383 12-12S18.616 0 12 0zm0 1.144c5.995 0 10.856 4.86 10.856 10.856 0 5.995-4.86 10.856-10.856 10.856-5.996 0-10.856-4.86-10.856-10.856C1.144 6.004 6.004 1.144 12 1.144zM8.37 5.868a6.707 6.707 0 0 0-.423.005c-.983.056-1.573.517-1.735 1.472-.115.665-.096 1.348-.143 2.017-.013.35-.05.697-.115 1.038-.134.609-.397.798-1.016.83a2.65 2.65 0 0 0-.244.042v1.463c1.126.055 1.278.452 1.37 1.629.033.429-.013.858.015 1.287.018.406.073.808.156 1.2.259 1.075 1.307 1.435 2.575 1.218v-1.283c-.203 0-.383.005-.558 0-.43-.013-.591-.12-.632-.535-.056-.535-.042-1.08-.075-1.62-.064-1.001-.175-1.988-1.153-2.625.503-.37.868-.812.983-1.398.083-.41.134-.821.166-1.237.028-.415-.023-.84.014-1.25.06-.665.102-.937.9-.91.12 0 .235-.017.369-.027v-1.31c-.16 0-.31-.004-.454-.006zm7.593.009a4.247 4.247 0 0 0-.813.06v1.274c.245 0 .434 0 .623.005.328.004.577.13.61.494.032.332.031.669.064 1.006.065.669.101 1.347.217 2.007.102.544.475.95.941 1.283-.817.549-1.057 1.333-1.098 2.215-.023.604-.037 1.213-.069 1.822-.028.554-.222.734-.78.748-.157.004-.31.018-.484.028v1.305c.327 0 .627.019.927 0 .932-.055 1.495-.507 1.68-1.412.078-.498.124-1 .138-1.504.032-.461.028-.927.074-1.384.069-.715.397-1.01 1.112-1.057a.972.972 0 0 0 .199-.046v-1.463c-.12-.014-.204-.027-.291-.032-.536-.023-.804-.203-.937-.71a5.146 5.146 0 0 1-.152-.993c-.037-.618-.033-1.241-.074-1.86-.08-1.192-.794-1.753-1.887-1.786zm-6.89 5.28a.844.844 0 0 0-.083 1.684h.055a.83.83 0 0 0 .877-.78v-.046a.845.845 0 0 0-.83-.858zm2.911 0a.808.808 0 0 0-.834.78c0 .027 0 .05.004.078 0 .503.342.826.859.826.507 0 .826-.332.826-.853-.005-.503-.342-.836-.855-.831zm2.963 0a.861.861 0 0 0-.876.835c0 .47.378.849.849.849h.009c.425.074.853-.337.881-.83.023-.457-.392-.854-.863-.854z"/>
    </symbol>

    <symbol id="framer-motion" viewBox="0 0 24 24">
        <path d="M12 12l-8 -8v16l16 -16v16l-4 -4"/>
        <path d="M20 12l-8 8l-4 -4"/>
    </symbol>

    <symbol id="sass" viewBox="0 0 640 512">
        <path d="M301.84 378.92c-.3.6-.6 1.08 0 0zm249.13-87a131.16 131.16 0 0 0-58 13.5c-5.9-11.9-12-22.3-13-30.1-1.2-9.1-2.5-14.5-1.1-25.3s7.7-26.1 7.6-27.2-1.4-6.6-14.3-6.7-24 2.5-25.29 5.9a122.83 122.83 0 0 0-5.3 19.1c-2.3 11.7-25.79 53.5-39.09 75.3-4.4-8.5-8.1-16-8.9-22-1.2-9.1-2.5-14.5-1.1-25.3s7.7-26.1 7.6-27.2-1.4-6.6-14.29-6.7-24 2.5-25.3 5.9-2.7 11.4-5.3 19.1-33.89 77.3-42.08 95.4c-4.2 9.2-7.8 16.6-10.4 21.6-.4.8-.7 1.3-.9 1.7.3-.5.5-1 .5-.8-2.2 4.3-3.5 6.7-3.5 6.7v.1c-1.7 3.2-3.6 6.1-4.5 6.1-.6 0-1.9-8.4.3-19.9 4.7-24.2 15.8-61.8 15.7-63.1-.1-.7 2.1-7.2-7.3-10.7-9.1-3.3-12.4 2.2-13.2 2.2s-1.4 2-1.4 2 10.1-42.4-19.39-42.4c-18.4 0-44 20.2-56.58 38.5-7.9 4.3-25 13.6-43 23.5-6.9 3.8-14 7.7-20.7 11.4-.5-.5-.9-1-1.4-1.5-35.79-38.2-101.87-65.2-99.07-116.5 1-18.7 7.5-67.8 127.07-127.4 98-48.8 176.35-35.4 189.84-5.6 19.4 42.5-41.89 121.6-143.66 133-38.79 4.3-59.18-10.7-64.28-16.3-5.3-5.9-6.1-6.2-8.1-5.1-3.3 1.8-1.2 7 0 10.1 3 7.9 15.5 21.9 36.79 28.9 18.7 6.1 64.18 9.5 119.17-11.8 61.78-23.8 109.87-90.1 95.77-145.6C386.52 18.32 293-.18 204.57 31.22c-52.69 18.7-109.67 48.1-150.66 86.4-48.69 45.6-56.48 85.3-53.28 101.9 11.39 58.9 92.57 97.3 125.06 125.7-1.6.9-3.1 1.7-4.5 2.5-16.29 8.1-78.18 40.5-93.67 74.7-17.5 38.8 2.9 66.6 16.29 70.4 41.79 11.6 84.58-9.3 107.57-43.6s20.2-79.1 9.6-99.5c-.1-.3-.3-.5-.4-.8 4.2-2.5 8.5-5 12.8-7.5 8.29-4.9 16.39-9.4 23.49-13.3-4 10.8-6.9 23.8-8.4 42.6-1.8 22 7.3 50.5 19.1 61.7 5.2 4.9 11.49 5 15.39 5 13.8 0 20-11.4 26.89-25 8.5-16.6 16-35.9 16-35.9s-9.4 52.2 16.3 52.2c9.39 0 18.79-12.1 23-18.3v.1s.2-.4.7-1.2c1-1.5 1.5-2.4 1.5-2.4v-.3c3.8-6.5 12.1-21.4 24.59-46 16.2-31.8 31.69-71.5 31.69-71.5a201.24 201.24 0 0 0 6.2 25.8c2.8 9.5 8.7 19.9 13.4 30-3.8 5.2-6.1 8.2-6.1 8.2a.31.31 0 0 0 .1.2c-3 4-6.4 8.3-9.9 12.5-12.79 15.2-28 32.6-30 37.6-2.4 5.9-1.8 10.3 2.8 13.7 3.4 2.6 9.4 3 15.69 2.5 11.5-.8 19.6-3.6 23.5-5.4a82.2 82.2 0 0 0 20.19-10.6c12.5-9.2 20.1-22.4 19.4-39.8-.4-9.6-3.5-19.2-7.3-28.2 1.1-1.6 2.3-3.3 3.4-5C434.8 301.72 450.1 270 450.1 270a201.24 201.24 0 0 0 6.2 25.8c2.4 8.1 7.09 17 11.39 25.7-18.59 15.1-30.09 32.6-34.09 44.1-7.4 21.3-1.6 30.9 9.3 33.1 4.9 1 11.9-1.3 17.1-3.5a79.46 79.46 0 0 0 21.59-11.1c12.5-9.2 24.59-22.1 23.79-39.6-.3-7.9-2.5-15.8-5.4-23.4 15.7-6.6 36.09-10.2 62.09-7.2 55.68 6.5 66.58 41.3 64.48 55.8s-13.8 22.6-17.7 25-5.1 3.3-4.8 5.1c.5 2.6 2.3 2.5 5.6 1.9 4.6-.8 29.19-11.8 30.29-38.7 1.6-34-31.09-71.4-89-71.1zm-429.18 144.7c-18.39 20.1-44.19 27.7-55.28 21.3C54.61 451 59.31 421.42 82 400c13.8-13 31.59-25 43.39-32.4 2.7-1.6 6.6-4 11.4-6.9.8-.5 1.2-.7 1.2-.7.9-.6 1.9-1.1 2.9-1.7 8.29 30.4.3 57.2-19.1 78.3zm134.36-91.4c-6.4 15.7-19.89 55.7-28.09 53.6-7-1.8-11.3-32.3-1.4-62.3 5-15.1 15.6-33.1 21.9-40.1 10.09-11.3 21.19-14.9 23.79-10.4 3.5 5.9-12.2 49.4-16.2 59.2zm111 53c-2.7 1.4-5.2 2.3-6.4 1.6-.9-.5 1.1-2.4 1.1-2.4s13.9-14.9 19.4-21.7c3.2-4 6.9-8.7 10.89-13.9 0 .5.1 1 .1 1.6-.13 17.9-17.32 30-25.12 34.8zm85.58-19.5c-2-1.4-1.7-6.1 5-20.7 2.6-5.7 8.59-15.3 19-24.5a36.18 36.18 0 0 1 1.9 10.8c-.1 22.5-16.2 30.9-25.89 34.4z"/>
    </symbol>

    <symbol id="rollup" viewBox="0 0 24 24">
        <path d="M3.42.0002a.37.37 0 00-.369.37V19.885c.577-1.488 1.557-3.6168 3.1378-6.5297C11.8885 2.876 12.6355 1.8191 15.6043 1.8191c1.56 0 3.1338.704 4.1518 1.9549A7.9616 7.9616 0 0013.1014.0002zM16.1393 2.544c-1.19.01-2.257.466-2.6979 1.498-.967 2.2558 1.624 4.7667 2.7569 4.5677 1.4419-.255-.255-3.5628-.255-3.5628 2.2049 4.1558 1.6969 2.8838-2.2899 6.6996C9.6666 15.5623 5.596 23.6188 5.002 23.9568a.477.477 0 01-.08.043H20.558a.373.373 0 00.33-.538l-4.0878-8.0915a.37.37 0 01.144-.488 7.9596 7.9596 0 004.0048-6.9126c0-1.4249-.373-2.7608-1.03-3.9198-.9269-.9519-2.4298-1.5159-3.7787-1.5059z"/>
    </symbol>

    <symbol id="webpack" viewBox="0 0 24 24">
        <path d="M22.1987 18.498l-9.7699 5.5022v-4.2855l6.0872-3.3338 3.6826 2.117zm.6683-.6026V6.3884l-3.5752 2.0544v7.396zm-21.0657.6026l9.7699 5.5022v-4.2855L5.484 16.3809l-3.6826 2.117zm-.6683-.6026V6.3884l3.5751 2.0544v7.396zm.4183-12.2515l10.0199-5.644v4.1434L5.152 7.6586l-.0489.028zm20.8975 0l-10.02-5.644v4.1434l6.4192 3.5154.0489.028 3.5518-2.0427zm-10.8775 13.096l-6.0056-3.2873V8.9384l6.0054 3.4525v6.349zm.8575 0l6.0053-3.2873V8.9384l-6.0053 3.4525zM5.9724 8.1845l6.0287-3.3015L18.03 8.1845l-6.0288 3.4665z"/>
    </symbol>

    <symbol id="eslint" viewBox="0 0 24 24">
        <path d="M7.257 9.132L11.816 6.5a.369.369 0 0 1 .368 0l4.559 2.632a.369.369 0 0 1 .184.32v5.263a.37.37 0 0 1-.184.319l-4.559 2.632a.369.369 0 0 1-.368 0l-4.559-2.632a.369.369 0 0 1-.184-.32V9.452a.37.37 0 0 1 .184-.32M23.852 11.53l-5.446-9.475c-.198-.343-.564-.596-.96-.596H6.555c-.396 0-.762.253-.96.596L.149 11.509a1.127 1.127 0 0 0 0 1.117l5.447 9.398c.197.342.563.517.959.517h10.893c.395 0 .76-.17.959-.512l5.446-9.413a1.069 1.069 0 0 0 0-1.086m-4.51 4.556a.4.4 0 0 1-.204.338L12.2 20.426a.395.395 0 0 1-.392 0l-6.943-4.002a.4.4 0 0 1-.205-.338V8.08c0-.14.083-.269.204-.338L11.8 3.74c.12-.07.272-.07.392 0l6.943 4.003a.4.4 0 0 1 .206.338z"/>
    </symbol>

    <symbol id="prettier" viewBox="0 0 24 24">
        <path d="M8.571 23.429A.571.571 0 0 1 8 24H2.286a.571.571 0 0 1 0-1.143H8c.316 0 .571.256.571.572zM8 20.57H6.857a.571.571 0 0 0 0 1.143H8a.571.571 0 0 0 0-1.143zm-5.714 1.143H4.57a.571.571 0 0 0 0-1.143H2.286a.571.571 0 0 0 0 1.143zM8 18.286H2.286a.571.571 0 0 0 0 1.143H8a.571.571 0 0 0 0-1.143zM16 16H5.714a.571.571 0 0 0 0 1.143H16A.571.571 0 0 0 16 16zM2.286 17.143h1.143a.571.571 0 0 0 0-1.143H2.286a.571.571 0 0 0 0 1.143zm17.143-3.429H16a.571.571 0 0 0 0 1.143h3.429a.571.571 0 0 0 0-1.143zM9.143 14.857h4.571a.571.571 0 0 0 0-1.143H9.143a.571.571 0 0 0 0 1.143zm-6.857 0h4.571a.571.571 0 0 0 0-1.143H2.286a.571.571 0 0 0 0 1.143zM20.57 11.43H11.43a.571.571 0 0 0 0 1.142h9.142a.571.571 0 0 0 0-1.142zM9.714 12a.571.571 0 0 0-.571-.571H5.714a.571.571 0 0 0 0 1.142h3.429A.571.571 0 0 0 9.714 12zm-7.428.571h1.143a.571.571 0 0 0 0-1.142H2.286a.571.571 0 0 0 0 1.142zm19.428-3.428H16a.571.571 0 0 0 0 1.143h5.714a.571.571 0 0 0 0-1.143zM2.286 10.286H8a.571.571 0 0 0 0-1.143H2.286a.571.571 0 0 0 0 1.143zm13.143-2.857c0 .315.255.571.571.571h5.714a.571.571 0 0 0 0-1.143H16a.571.571 0 0 0-.571.572zm-8.572-.572a.571.571 0 0 0 0 1.143H8a.571.571 0 0 0 0-1.143H6.857zM2.286 8H4.57a.571.571 0 0 0 0-1.143H2.286a.571.571 0 0 0 0 1.143zm16.571-2.857c0 .315.256.571.572.571h1.142a.571.571 0 0 0 0-1.143H19.43a.571.571 0 0 0-.572.572zm-1.143 0a.571.571 0 0 0-.571-.572H12.57a.571.571 0 0 0 0 1.143h4.572a.571.571 0 0 0 .571-.571zm-15.428.571h8a.571.571 0 0 0 0-1.143h-8a.571.571 0 0 0 0 1.143zm5.143-2.857c0 .316.255.572.571.572h11.429a.571.571 0 0 0 0-1.143H8a.571.571 0 0 0-.571.571zm-5.143.572h3.428a.571.571 0 0 0 0-1.143H2.286a.571.571 0 0 0 0 1.143zm0-2.286H16A.571.571 0 0 0 16 0H2.286a.571.571 0 0 0 0 1.143z"/>
    </symbol>

    <symbol id="vite" viewBox="0 0 24 24">
        <path d="m8.286 10.578.512-8.657a.306.306 0 0 1 .247-.282L17.377.006a.306.306 0 0 1 .353.385l-1.558 5.403a.306.306 0 0 0 .352.385l2.388-.46a.306.306 0 0 1 .332.438l-6.79 13.55-.123.19a.294.294 0 0 1-.252.14c-.177 0-.35-.152-.305-.369l1.095-5.301a.306.306 0 0 0-.388-.355l-1.433.435a.306.306 0 0 1-.389-.354l.69-3.375a.306.306 0 0 0-.37-.36l-2.32.536a.306.306 0 0 1-.374-.316zm14.976-7.926L17.284 3.74l-.544 1.887 2.077-.4a.8.8 0 0 1 .84.369.8.8 0 0 1 .034.783L12.9 19.93l-.013.025-.015.023-.122.19a.801.801 0 0 1-.672.37.826.826 0 0 1-.634-.302.8.8 0 0 1-.16-.67l1.029-4.981-1.12.34a.81.81 0 0 1-.86-.262.802.802 0 0 1-.165-.67l.63-3.08-2.027.468a.808.808 0 0 1-.768-.233.81.81 0 0 1-.217-.6l.389-6.57-7.44-1.33a.612.612 0 0 0-.64.906L11.58 23.691a.612.612 0 0 0 1.066-.004l11.26-20.135a.612.612 0 0 0-.644-.9z"/>
    </symbol>
</svg>